STARTFONT 2.1
COMMENT Generated with 'ucs2any.pl 6x13B.bdf ../xcyr-2.3/tryfont/KOI8-C.TXT KOI8-C'
COMMENT from an ISO10646-1 encoded source BDF font.
COMMENT ucs2any.pl by Markus Kuhn <mkuhn@acm.org>, 1999.
COMMENT "$Id: 6x13B.bdf,v 1.21 1999-12-13 10:23:03+00 mgk25 Exp mgk25 $"
COMMENT "Send bug reports to Markus Kuhn <mkuhn@acm.org>"
COMMENT Changes 1999 by Serge Winitzki.
FONT -Misc-Fixed-Bold-R-SemiCondensed--13-120-75-75-C-60-KOI8-C
SIZE 13 75 75
FONTBOUNDINGBOX 6 13 0 -2
STARTPROPERTIES 23
FONTNAME_REGISTRY ""
FOUNDRY "Misc"
FAMILY_NAME "Fixed"
WEIGHT_NAME "Bold"
SLANT "R"
SETWIDTH_NAME "SemiCondensed"
ADD_STYLE_NAME ""
PIXEL_SIZE 13
POINT_SIZE 120
RESOLUTION_X 75
RESOLUTION_Y 75
SPACING "C"
AVERAGE_WIDTH 60
CHARSET_REGISTRY "KOI8"
CHARSET_ENCODING "C"
DEFAULT_CHAR 0
FONT_DESCENT 2
FONT_ASCENT 11
COPYRIGHT "Public domain font.  Share and enjoy."
CAP_HEIGHT 9
X_HEIGHT 6
_XMBDFED_INFO "Edited with xmbdfed 3.8."
_XFREE86_GLYPH_RANGES "0_255"
ENDPROPERTIES
CHARS 256
STARTCHAR defaultchar
ENCODING 0
SWIDTH 443 0
DWIDTH 6 0
BBX 6 11 0 -1
BITMAP
A8
A8
00
88
88
00
88
88
00
A8
A8
ENDCHAR
STARTCHAR uni25C6
ENCODING 1
SWIDTH 443 0
DWIDTH 6 0
BBX 6 5 0 2
BITMAP
30
78
FC
78
30
ENDCHAR
STARTCHAR shade
ENCODING 2
SWIDTH 443 0
DWIDTH 6 0
BBX 6 13 0 -2
BITMAP
A8
54
A8
54
A8
54
A8
54
A8
54
A8
54
A8
ENDCHAR
STARTCHAR multi
ENCODING 3
SWIDTH 443 0
DWIDTH 6 0
BBX 6 5 0 1
BITMAP
CC
78
30
78
CC
ENDCHAR
STARTCHAR divide
ENCODING 4
SWIDTH 443 0
DWIDTH 6 0
BBX 6 7 0 1
BITMAP
30
30
00
FC
00
30
30
ENDCHAR
STARTCHAR promille
ENCODING 5
SWIDTH 443 0
DWIDTH 6 0
BBX 6 9 0 0
BITMAP
6C
DC
78
18
30
60
FC
D4
FC
ENDCHAR
STARTCHAR approx
ENCODING 6
SWIDTH 443 0
DWIDTH 6 0
BBX 6 5 0 2
BITMAP
74
DC
00
74
DC
ENDCHAR
STARTCHAR degree
ENCODING 7
SWIDTH 443 0
DWIDTH 6 0
BBX 6 8 0 -2
BITMAP
CC
CC
CC
CC
DC
EC
C0
C0
ENDCHAR
STARTCHAR plusminus
ENCODING 8
SWIDTH 443 0
DWIDTH 6 0
BBX 6 9 0 0
BITMAP
30
30
FC
FC
30
30
00
FC
FC
ENDCHAR
STARTCHAR pilcrow
ENCODING 9
SWIDTH 443 0
DWIDTH 6 0
BBX 6 9 0 0
BITMAP
7C
F4
F4
F4
74
14
14
14
14
ENDCHAR
STARTCHAR ddagger
ENCODING 10
SWIDTH 443 0
DWIDTH 6 0
BBX 6 9 0 0
BITMAP
30
30
FC
30
30
30
FC
30
30
ENDCHAR
STARTCHAR SF040000
ENCODING 11
SWIDTH 443 0
DWIDTH 6 0
BBX 6 8 0 3
BITMAP
30
30
30
30
30
30
F0
F0
ENDCHAR
STARTCHAR SF030000
ENCODING 12
SWIDTH 443 0
DWIDTH 6 0
BBX 6 7 0 -2
BITMAP
F0
F0
30
30
30
30
30
ENDCHAR
STARTCHAR SF010000
ENCODING 13
SWIDTH 443 0
DWIDTH 6 0
BBX 6 7 0 -2
BITMAP
3C
3C
30
30
30
30
30
ENDCHAR
STARTCHAR SF020000
ENCODING 14
SWIDTH 443 0
DWIDTH 6 0
BBX 6 8 0 3
BITMAP
30
30
30
30
30
30
3C
3C
ENDCHAR
STARTCHAR SF050000
ENCODING 15
SWIDTH 443 0
DWIDTH 6 0
BBX 6 13 0 -2
BITMAP
30
30
30
30
30
30
FC
FC
30
30
30
30
30
ENDCHAR
STARTCHAR char16
ENCODING 16
SWIDTH 443 0
DWIDTH 6 0
BBX 6 2 0 7
BITMAP
FC
FC
ENDCHAR
STARTCHAR char17
ENCODING 17
SWIDTH 443 0
DWIDTH 6 0
BBX 6 2 0 5
BITMAP
FC
FC
ENDCHAR
STARTCHAR char18
ENCODING 18
SWIDTH 443 0
DWIDTH 6 0
BBX 6 2 0 3
BITMAP
FC
FC
ENDCHAR
STARTCHAR char19
ENCODING 19
SWIDTH 443 0
DWIDTH 6 0
BBX 6 2 0 1
BITMAP
FC
FC
ENDCHAR
STARTCHAR char20
ENCODING 20
SWIDTH 443 0
DWIDTH 6 0
BBX 6 2 0 -1
BITMAP
FC
FC
ENDCHAR
STARTCHAR SF080000
ENCODING 21
SWIDTH 443 0
DWIDTH 6 0
BBX 6 13 0 -2
BITMAP
30
30
30
30
30
30
3C
3C
30
30
30
30
30
ENDCHAR
STARTCHAR SF090000
ENCODING 22
SWIDTH 443 0
DWIDTH 6 0
BBX 6 13 0 -2
BITMAP
30
30
30
30
30
30
F0
F0
30
30
30
30
30
ENDCHAR
STARTCHAR SF070000
ENCODING 23
SWIDTH 443 0
DWIDTH 6 0
BBX 6 8 0 3
BITMAP
30
30
30
30
30
30
FC
FC
ENDCHAR
STARTCHAR SF060000
ENCODING 24
SWIDTH 443 0
DWIDTH 6 0
BBX 6 7 0 -2
BITMAP
FC
FC
30
30
30
30
30
ENDCHAR
STARTCHAR SF110000
ENCODING 25
SWIDTH 443 0
DWIDTH 6 0
BBX 6 13 0 -2
BITMAP
30
30
30
30
30
30
30
30
30
30
30
30
30
ENDCHAR
STARTCHAR lessequal
ENCODING 26
SWIDTH 443 0
DWIDTH 6 0
BBX 6 7 0 1
BITMAP
1C
70
C0
70
1C
00
FC
ENDCHAR
STARTCHAR greaterequal
ENCODING 27
SWIDTH 443 0
DWIDTH 6 0
BBX 6 7 0 1
BITMAP
E0
38
0C
38
E0
00
FC
ENDCHAR
STARTCHAR pi
ENCODING 28
SWIDTH 443 0
DWIDTH 6 0
BBX 6 6 0 0
BITMAP
7C
EC
6C
6C
6C
6C
ENDCHAR
STARTCHAR notequal
ENCODING 29
SWIDTH 443 0
DWIDTH 6 0
BBX 6 5 0 1
BITMAP
0C
FC
30
FC
C0
ENDCHAR
STARTCHAR currency
ENCODING 30
SWIDTH 443 0
DWIDTH 6 0
BBX 6 6 0 1
BITMAP
CC
FC
48
48
FC
CC
ENDCHAR
STARTCHAR twosuperior
ENCODING 31
SWIDTH 443 0
DWIDTH 6 0
BBX 6 6 0 4
BITMAP
E0
B0
30
60
C0
F0
ENDCHAR
STARTCHAR space
ENCODING 32
SWIDTH 443 0
DWIDTH 6 0
BBX 0 0 0 0
BITMAP
ENDCHAR
STARTCHAR exclam
ENCODING 33
SWIDTH 443 0
DWIDTH 6 0
BBX 6 9 0 0
BITMAP
30
30
30
30
30
30
30
00
30
ENDCHAR
STARTCHAR quotedbl
ENCODING 34
SWIDTH 443 0
DWIDTH 6 0
BBX 6 3 0 6
BITMAP
D8
D8
D8
ENDCHAR
STARTCHAR numbersign
ENCODING 35
SWIDTH 443 0
DWIDTH 6 0
BBX 6 7 0 1
BITMAP
78
78
FC
78
FC
78
78
ENDCHAR
STARTCHAR dollar
ENCODING 36
SWIDTH 443 0
DWIDTH 6 0
BBX 6 7 0 1
BITMAP
30
78
F0
78
3C
78
30
ENDCHAR
STARTCHAR percent
ENCODING 37
SWIDTH 443 0
DWIDTH 6 0
BBX 6 9 0 0
BITMAP
6C
FC
78
18
30
60
78
FC
D8
ENDCHAR
STARTCHAR ampersand
ENCODING 38
SWIDTH 443 0
DWIDTH 6 0
BBX 6 7 0 0
BITMAP
60
F0
F0
60
FC
D8
7C
ENDCHAR
STARTCHAR quotesingle
ENCODING 39
SWIDTH 443 0
DWIDTH 6 0
BBX 6 3 0 6
BITMAP
30
30
30
ENDCHAR
STARTCHAR parenleft
ENCODING 40
SWIDTH 443 0
DWIDTH 6 0
BBX 6 11 0 -1
BITMAP
18
30
30
60
60
60
60
60
30
30
18
ENDCHAR
STARTCHAR parenright
ENCODING 41
SWIDTH 443 0
DWIDTH 6 0
BBX 6 11 0 -1
BITMAP
60
30
30
18
18
18
18
18
30
30
60
ENDCHAR
STARTCHAR asterisk
ENCODING 42
SWIDTH 443 0
DWIDTH 6 0
BBX 6 5 0 2
BITMAP
CC
78
FC
78
CC
ENDCHAR
STARTCHAR plus
ENCODING 43
SWIDTH 443 0
DWIDTH 6 0
BBX 6 5 0 2
BITMAP
30
30
FC
30
30
ENDCHAR
STARTCHAR comma
ENCODING 44
SWIDTH 443 0
DWIDTH 6 0
BBX 6 3 0 -1
BITMAP
38
30
60
ENDCHAR
STARTCHAR hyphen
ENCODING 45
SWIDTH 443 0
DWIDTH 6 0
BBX 6 1 0 4
BITMAP
FC
ENDCHAR
STARTCHAR period
ENCODING 46
SWIDTH 443 0
DWIDTH 6 0
BBX 6 3 0 -1
BITMAP
30
78
30
ENDCHAR
STARTCHAR slash
ENCODING 47
SWIDTH 443 0
DWIDTH 6 0
BBX 6 9 0 0
BITMAP
0C
0C
18
18
30
60
60
C0
C0
ENDCHAR
STARTCHAR zero
ENCODING 48
SWIDTH 443 0
DWIDTH 6 0
BBX 6 9 0 0
BITMAP
30
78
CC
CC
CC
CC
CC
78
30
ENDCHAR
STARTCHAR one
ENCODING 49
SWIDTH 443 0
DWIDTH 6 0
BBX 6 9 0 0
BITMAP
30
70
F0
30
30
30
30
30
FC
ENDCHAR
STARTCHAR two
ENCODING 50
SWIDTH 443 0
DWIDTH 6 0
BBX 6 9 0 0
BITMAP
78
CC
CC
0C
18
30
60
C0
FC
ENDCHAR
STARTCHAR three
ENCODING 51
SWIDTH 443 0
DWIDTH 6 0
BBX 6 9 0 0
BITMAP
FC
0C
18
30
78
0C
0C
CC
78
ENDCHAR
STARTCHAR four
ENCODING 52
SWIDTH 443 0
DWIDTH 6 0
BBX 6 9 0 0
BITMAP
18
18
38
78
58
D8
FC
18
18
ENDCHAR
STARTCHAR five
ENCODING 53
SWIDTH 443 0
DWIDTH 6 0
BBX 6 9 0 0
BITMAP
FC
C0
C0
F8
EC
0C
0C
CC
78
ENDCHAR
STARTCHAR six
ENCODING 54
SWIDTH 443 0
DWIDTH 6 0
BBX 6 9 0 0
BITMAP
38
60
C0
C0
F8
EC
CC
CC
78
ENDCHAR
STARTCHAR seven
ENCODING 55
SWIDTH 443 0
DWIDTH 6 0
BBX 6 9 0 0
BITMAP
FC
0C
18
18
30
30
60
60
60
ENDCHAR
STARTCHAR eight
ENCODING 56
SWIDTH 443 0
DWIDTH 6 0
BBX 6 9 0 0
BITMAP
78
CC
CC
CC
78
CC
CC
CC
78
ENDCHAR
STARTCHAR nine
ENCODING 57
SWIDTH 443 0
DWIDTH 6 0
BBX 6 9 0 0
BITMAP
78
CC
CC
DC
7C
0C
0C
18
70
ENDCHAR
STARTCHAR colon
ENCODING 58
SWIDTH 443 0
DWIDTH 6 0
BBX 6 8 0 0
BITMAP
30
78
30
00
00
30
78
30
ENDCHAR
STARTCHAR semicolon
ENCODING 59
SWIDTH 443 0
DWIDTH 6 0
BBX 6 8 0 -1
BITMAP
30
78
30
00
00
38
30
60
ENDCHAR
STARTCHAR less
ENCODING 60
SWIDTH 443 0
DWIDTH 6 0
BBX 6 9 0 0
BITMAP
0C
18
30
60
C0
60
30
18
0C
ENDCHAR
STARTCHAR equal
ENCODING 61
SWIDTH 443 0
DWIDTH 6 0
BBX 6 4 0 2
BITMAP
FC
00
00
FC
ENDCHAR
STARTCHAR greater
ENCODING 62
SWIDTH 443 0
DWIDTH 6 0
BBX 6 9 0 0
BITMAP
C0
60
30
18
0C
18
30
60
C0
ENDCHAR
STARTCHAR question
ENCODING 63
SWIDTH 443 0
DWIDTH 6 0
BBX 6 9 0 0
BITMAP
78
CC
CC
0C
18
30
30
00
30
ENDCHAR
STARTCHAR at
ENCODING 64
SWIDTH 443 0
DWIDTH 6 0
BBX 6 9 0 0
BITMAP
78
CC
CC
DC
FC
FC
F8
C0
7C
ENDCHAR
STARTCHAR A
ENCODING 65
SWIDTH 443 0
DWIDTH 6 0
BBX 6 9 0 0
BITMAP
30
78
CC
CC
CC
FC
CC
CC
CC
ENDCHAR
STARTCHAR B
ENCODING 66
SWIDTH 443 0
DWIDTH 6 0
BBX 6 9 0 0
BITMAP
F8
6C
6C
6C
78
6C
6C
6C
F8
ENDCHAR
STARTCHAR C
ENCODING 67
SWIDTH 443 0
DWIDTH 6 0
BBX 6 9 0 0
BITMAP
78
CC
C0
C0
C0
C0
C0
CC
78
ENDCHAR
STARTCHAR D
ENCODING 68
SWIDTH 443 0
DWIDTH 6 0
BBX 6 9 0 0
BITMAP
F8
6C
6C
6C
6C
6C
6C
6C
F8
ENDCHAR
STARTCHAR E
ENCODING 69
SWIDTH 443 0
DWIDTH 6 0
BBX 6 9 0 0
BITMAP
FC
C0
C0
C0
F8
C0
C0
C0
FC
ENDCHAR
STARTCHAR F
ENCODING 70
SWIDTH 443 0
DWIDTH 6 0
BBX 6 9 0 0
BITMAP
FC
C0
C0
C0
F8
C0
C0
C0
C0
ENDCHAR
STARTCHAR G
ENCODING 71
SWIDTH 443 0
DWIDTH 6 0
BBX 6 9 0 0
BITMAP
78
CC
C0
C0
C0
DC
CC
CC
78
ENDCHAR
STARTCHAR H
ENCODING 72
SWIDTH 443 0
DWIDTH 6 0
BBX 6 9 0 0
BITMAP
CC
CC
CC
CC
FC
CC
CC
CC
CC
ENDCHAR
STARTCHAR I
ENCODING 73
SWIDTH 443 0
DWIDTH 6 0
BBX 6 9 0 0
BITMAP
78
30
30
30
30
30
30
30
78
ENDCHAR
STARTCHAR J
ENCODING 74
SWIDTH 443 0
DWIDTH 6 0
BBX 6 9 0 0
BITMAP
3C
0C
0C
0C
0C
0C
0C
CC
78
ENDCHAR
STARTCHAR K
ENCODING 75
SWIDTH 443 0
DWIDTH 6 0
BBX 6 9 0 0
BITMAP
CC
CC
D8
F0
E0
F0
D8
CC
CC
ENDCHAR
STARTCHAR L
ENCODING 76
SWIDTH 443 0
DWIDTH 6 0
BBX 6 9 0 0
BITMAP
C0
C0
C0
C0
C0
C0
C0
C0
FC
ENDCHAR
STARTCHAR M
ENCODING 77
SWIDTH 443 0
DWIDTH 6 0
BBX 6 9 0 0
BITMAP
CC
CC
FC
FC
FC
CC
CC
CC
CC
ENDCHAR
STARTCHAR N
ENCODING 78
SWIDTH 443 0
DWIDTH 6 0
BBX 6 9 0 0
BITMAP
CC
EC
EC
FC
FC
DC
DC
CC
CC
ENDCHAR
STARTCHAR O
ENCODING 79
SWIDTH 443 0
DWIDTH 6 0
BBX 6 9 0 0
BITMAP
78
CC
CC
CC
CC
CC
CC
CC
78
ENDCHAR
STARTCHAR P
ENCODING 80
SWIDTH 443 0
DWIDTH 6 0
BBX 6 9 0 0
BITMAP
F8
CC
CC
CC
F8
C0
C0
C0
C0
ENDCHAR
STARTCHAR Q
ENCODING 81
SWIDTH 443 0
DWIDTH 6 0
BBX 6 10 0 -1
BITMAP
78
CC
CC
CC
CC
CC
CC
FC
78
0C
ENDCHAR
STARTCHAR R
ENCODING 82
SWIDTH 443 0
DWIDTH 6 0
BBX 6 9 0 0
BITMAP
F8
CC
CC
CC
F8
F0
D8
CC
CC
ENDCHAR
STARTCHAR S
ENCODING 83
SWIDTH 443 0
DWIDTH 6 0
BBX 6 9 0 0
BITMAP
78
CC
C0
C0
78
0C
0C
CC
78
ENDCHAR
STARTCHAR T
ENCODING 84
SWIDTH 443 0
DWIDTH 6 0
BBX 6 9 0 0
BITMAP
FC
30
30
30
30
30
30
30
30
ENDCHAR
STARTCHAR U
ENCODING 85
SWIDTH 443 0
DWIDTH 6 0
BBX 6 9 0 0
BITMAP
CC
CC
CC
CC
CC
CC
CC
CC
78
ENDCHAR
STARTCHAR V
ENCODING 86
SWIDTH 443 0
DWIDTH 6 0
BBX 6 9 0 0
BITMAP
CC
CC
CC
CC
78
78
78
30
30
ENDCHAR
STARTCHAR W
ENCODING 87
SWIDTH 443 0
DWIDTH 6 0
BBX 6 9 0 0
BITMAP
CC
CC
CC
CC
FC
FC
FC
FC
CC
ENDCHAR
STARTCHAR X
ENCODING 88
SWIDTH 443 0
DWIDTH 6 0
BBX 6 9 0 0
BITMAP
CC
CC
78
78
30
78
78
CC
CC
ENDCHAR
STARTCHAR Y
ENCODING 89
SWIDTH 443 0
DWIDTH 6 0
BBX 6 9 0 0
BITMAP
CC
CC
78
78
30
30
30
30
30
ENDCHAR
STARTCHAR Z
ENCODING 90
SWIDTH 443 0
DWIDTH 6 0
BBX 6 9 0 0
BITMAP
FC
0C
18
18
30
60
60
C0
FC
ENDCHAR
STARTCHAR bracketleft
ENCODING 91
SWIDTH 443 0
DWIDTH 6 0
BBX 6 11 0 -1
BITMAP
78
60
60
60
60
60
60
60
60
60
78
ENDCHAR
STARTCHAR backslash
ENCODING 92
SWIDTH 443 0
DWIDTH 6 0
BBX 6 9 0 0
BITMAP
C0
C0
60
60
30
18
18
0C
0C
ENDCHAR
STARTCHAR bracketright
ENCODING 93
SWIDTH 443 0
DWIDTH 6 0
BBX 6 11 0 -1
BITMAP
78
18
18
18
18
18
18
18
18
18
78
ENDCHAR
STARTCHAR asciicircum
ENCODING 94
SWIDTH 443 0
DWIDTH 6 0
BBX 6 3 0 6
BITMAP
30
78
CC
ENDCHAR
STARTCHAR underscore
ENCODING 95
SWIDTH 443 0
DWIDTH 6 0
BBX 6 1 0 -1
BITMAP
FC
ENDCHAR
STARTCHAR grave
ENCODING 96
SWIDTH 443 0
DWIDTH 6 0
BBX 6 2 0 8
BITMAP
60
30
ENDCHAR
STARTCHAR a
ENCODING 97
SWIDTH 443 0
DWIDTH 6 0
BBX 6 6 0 0
BITMAP
78
0C
7C
CC
DC
6C
ENDCHAR
STARTCHAR b
ENCODING 98
SWIDTH 443 0
DWIDTH 6 0
BBX 6 9 0 0
BITMAP
C0
C0
C0
D8
EC
CC
CC
EC
D8
ENDCHAR
STARTCHAR c
ENCODING 99
SWIDTH 443 0
DWIDTH 6 0
BBX 6 6 0 0
BITMAP
78
CC
C0
C0
CC
78
ENDCHAR
STARTCHAR d
ENCODING 100
SWIDTH 443 0
DWIDTH 6 0
BBX 6 9 0 0
BITMAP
0C
0C
0C
6C
DC
CC
CC
DC
6C
ENDCHAR
STARTCHAR e
ENCODING 101
SWIDTH 443 0
DWIDTH 6 0
BBX 6 6 0 0
BITMAP
78
CC
FC
C0
C0
78
ENDCHAR
STARTCHAR f
ENCODING 102
SWIDTH 443 0
DWIDTH 6 0
BBX 6 9 0 0
BITMAP
38
6C
60
60
F8
60
60
60
60
ENDCHAR
STARTCHAR g
ENCODING 103
SWIDTH 443 0
DWIDTH 6 0
BBX 6 8 0 -2
BITMAP
7C
D8
D8
70
C0
78
CC
78
ENDCHAR
STARTCHAR h
ENCODING 104
SWIDTH 443 0
DWIDTH 6 0
BBX 6 9 0 0
BITMAP
C0
C0
C0
D8
EC
CC
CC
CC
CC
ENDCHAR
STARTCHAR i
ENCODING 105
SWIDTH 443 0
DWIDTH 6 0
BBX 6 9 0 0
BITMAP
30
30
00
70
30
30
30
30
78
ENDCHAR
STARTCHAR j
ENCODING 106
SWIDTH 443 0
DWIDTH 6 0
BBX 6 11 0 -2
BITMAP
18
18
00
38
18
18
18
18
D8
D8
70
ENDCHAR
STARTCHAR k
ENCODING 107
SWIDTH 443 0
DWIDTH 6 0
BBX 6 9 0 0
BITMAP
C0
C0
C0
D8
F0
E0
F0
D8
CC
ENDCHAR
STARTCHAR l
ENCODING 108
SWIDTH 443 0
DWIDTH 6 0
BBX 6 9 0 0
BITMAP
70
30
30
30
30
30
30
30
78
ENDCHAR
STARTCHAR m
ENCODING 109
SWIDTH 443 0
DWIDTH 6 0
BBX 6 6 0 0
BITMAP
F8
FC
FC
FC
FC
CC
ENDCHAR
STARTCHAR n
ENCODING 110
SWIDTH 443 0
DWIDTH 6 0
BBX 6 6 0 0
BITMAP
D8
EC
CC
CC
CC
CC
ENDCHAR
STARTCHAR o
ENCODING 111
SWIDTH 443 0
DWIDTH 6 0
BBX 6 6 0 0
BITMAP
78
CC
CC
CC
CC
78
ENDCHAR
STARTCHAR p
ENCODING 112
SWIDTH 443 0
DWIDTH 6 0
BBX 6 8 0 -2
BITMAP
D8
EC
CC
EC
D8
C0
C0
C0
ENDCHAR
STARTCHAR q
ENCODING 113
SWIDTH 443 0
DWIDTH 6 0
BBX 6 8 0 -2
BITMAP
6C
DC
CC
DC
6C
0C
0C
0C
ENDCHAR
STARTCHAR r
ENCODING 114
SWIDTH 443 0
DWIDTH 6 0
BBX 6 6 0 0
BITMAP
D8
EC
C0
C0
C0
C0
ENDCHAR
STARTCHAR s
ENCODING 115
SWIDTH 443 0
DWIDTH 6 0
BBX 6 6 0 0
BITMAP
78
CC
70
18
CC
78
ENDCHAR
STARTCHAR t
ENCODING 116
SWIDTH 443 0
DWIDTH 6 0
BBX 6 8 0 0
BITMAP
60
60
F8
60
60
60
6C
38
ENDCHAR
STARTCHAR u
ENCODING 117
SWIDTH 443 0
DWIDTH 6 0
BBX 6 6 0 0
BITMAP
CC
CC
CC
CC
DC
6C
ENDCHAR
STARTCHAR v
ENCODING 118
SWIDTH 443 0
DWIDTH 6 0
BBX 6 6 0 0
BITMAP
CC
CC
CC
78
78
30
ENDCHAR
STARTCHAR w
ENCODING 119
SWIDTH 443 0
DWIDTH 6 0
BBX 6 6 0 0
BITMAP
CC
CC
FC
FC
FC
48
ENDCHAR
STARTCHAR x
ENCODING 120
SWIDTH 443 0
DWIDTH 6 0
BBX 6 6 0 0
BITMAP
CC
78
30
30
78
CC
ENDCHAR
STARTCHAR y
ENCODING 121
SWIDTH 443 0
DWIDTH 6 0
BBX 6 8 0 -2
BITMAP
CC
CC
CC
DC
6C
0C
CC
78
ENDCHAR
STARTCHAR z
ENCODING 122
SWIDTH 443 0
DWIDTH 6 0
BBX 6 6 0 0
BITMAP
FC
18
30
60
C0
FC
ENDCHAR
STARTCHAR braceleft
ENCODING 123
SWIDTH 443 0
DWIDTH 6 0
BBX 6 11 0 -1
BITMAP
38
60
60
60
30
E0
30
60
60
60
38
ENDCHAR
STARTCHAR bar
ENCODING 124
SWIDTH 443 0
DWIDTH 6 0
BBX 6 11 0 -1
BITMAP
30
30
30
30
30
30
30
30
30
30
30
ENDCHAR
STARTCHAR braceright
ENCODING 125
SWIDTH 443 0
DWIDTH 6 0
BBX 6 11 0 -1
BITMAP
E0
30
30
30
60
38
60
30
30
30
E0
ENDCHAR
STARTCHAR asciitilde
ENCODING 126
SWIDTH 443 0
DWIDTH 6 0
BBX 6 3 0 6
BITMAP
68
F8
90
ENDCHAR
STARTCHAR not
ENCODING 127
SWIDTH 443 0
DWIDTH 6 0
BBX 6 3 0 2
BITMAP
F8
F8
18
ENDCHAR
STARTCHAR afii10051
ENCODING 128
SWIDTH 443 0
DWIDTH 6 0
BBX 6 11 0 -2
BITMAP
F8
60
60
78
6C
6C
6C
6C
6C
0C
18
ENDCHAR
STARTCHAR afii10052
ENCODING 129
SWIDTH 443 0
DWIDTH 6 0
BBX 6 10 0 0
BITMAP
30
60
00
FC
C0
C0
C0
C0
C0
C0
ENDCHAR
STARTCHAR cedilla
ENCODING 130
SWIDTH 443 0
DWIDTH 6 0
BBX 6 3 0 -1
BITMAP
70
30
60
ENDCHAR
STARTCHAR afii10100
ENCODING 131
SWIDTH 443 0
DWIDTH 6 0
BBX 6 9 0 0
BITMAP
30
60
00
FC
C0
C0
C0
C0
C0
ENDCHAR
STARTCHAR quotedblbase
ENCODING 132
SWIDTH 443 0
DWIDTH 6 0
BBX 6 3 0 -1
BITMAP
FC
6C
D8
ENDCHAR
STARTCHAR ellipsis
ENCODING 133
SWIDTH 443 0
DWIDTH 6 0
BBX 6 1 0 0
BITMAP
A8
ENDCHAR
STARTCHAR dagger
ENCODING 134
SWIDTH 443 0
DWIDTH 6 0
BBX 6 9 0 0
BITMAP
30
30
FC
30
30
30
30
30
30
ENDCHAR
STARTCHAR section
ENCODING 135
SWIDTH 443 0
DWIDTH 6 0
BBX 6 10 0 0
BITMAP
78
CC
C0
78
CC
CC
78
0C
CC
78
ENDCHAR
STARTCHAR Euro
ENCODING 136
SWIDTH 443 0
DWIDTH 6 0
BBX 6 9 0 0
BITMAP
38
7C
60
F0
60
F0
60
7C
38
ENDCHAR
STARTCHAR dieresis
ENCODING 137
SWIDTH 443 0
DWIDTH 6 0
BBX 6 2 0 7
BITMAP
CC
CC
ENDCHAR
STARTCHAR afii10058
ENCODING 138
SWIDTH 443 0
DWIDTH 6 0
BBX 6 9 0 0
BITMAP
70
D0
D0
D8
DC
D4
D4
DC
D8
ENDCHAR
STARTCHAR guilsinglleft
ENCODING 139
SWIDTH 443 0
DWIDTH 6 0
BBX 6 5 0 0
BITMAP
18
30
60
30
18
ENDCHAR
STARTCHAR afii10059
ENCODING 140
SWIDTH 443 0
DWIDTH 6 0
BBX 6 9 0 0
BITMAP
D0
D0
D0
F8
FC
D4
D4
DC
D8
ENDCHAR
STARTCHAR afii10061
ENCODING 141
SWIDTH 443 0
DWIDTH 6 0
BBX 6 11 0 0
BITMAP
18
30
00
CC
D8
F0
E0
F0
D8
CC
CC
ENDCHAR
STARTCHAR afii10060
ENCODING 142
SWIDTH 443 0
DWIDTH 6 0
BBX 6 9 0 0
BITMAP
F8
60
60
78
6C
6C
6C
6C
6C
ENDCHAR
STARTCHAR afii10145
ENCODING 143
SWIDTH 443 0
DWIDTH 6 0
BBX 6 11 0 -2
BITMAP
CC
CC
CC
CC
CC
CC
CC
CC
FC
30
30
ENDCHAR
STARTCHAR afii10099
ENCODING 144
SWIDTH 443 0
DWIDTH 6 0
BBX 6 11 0 -2
BITMAP
60
F8
60
78
6C
6C
6C
6C
6C
0C
18
ENDCHAR
STARTCHAR quoteleft
ENCODING 145
SWIDTH 443 0
DWIDTH 6 0
BBX 6 3 0 6
BITMAP
30
60
70
ENDCHAR
STARTCHAR quoteright
ENCODING 146
SWIDTH 443 0
DWIDTH 6 0
BBX 6 3 0 6
BITMAP
70
30
60
ENDCHAR
STARTCHAR quotedblleft
ENCODING 147
SWIDTH 443 0
DWIDTH 6 0
BBX 6 3 0 6
BITMAP
6C
D8
FC
ENDCHAR
STARTCHAR quotedblright
ENCODING 148
SWIDTH 443 0
DWIDTH 6 0
BBX 6 3 0 6
BITMAP
FC
6C
D8
ENDCHAR
STARTCHAR bullet
ENCODING 149
SWIDTH 443 0
DWIDTH 6 0
BBX 6 4 0 2
BITMAP
30
78
78
30
ENDCHAR
STARTCHAR endash
ENCODING 150
SWIDTH 443 0
DWIDTH 6 0
BBX 6 1 0 4
BITMAP
F8
ENDCHAR
STARTCHAR emdash
ENCODING 151
SWIDTH 443 0
DWIDTH 6 0
BBX 6 1 0 4
BITMAP
FC
ENDCHAR
STARTCHAR sterling
ENCODING 152
SWIDTH 443 0
DWIDTH 6 0
BBX 6 9 0 0
BITMAP
38
6C
60
60
F8
60
60
64
F8
ENDCHAR
STARTCHAR periodcentered
ENCODING 153
SWIDTH 443 0
DWIDTH 6 0
BBX 6 2 0 4
BITMAP
30
30
ENDCHAR
STARTCHAR afii10106
ENCODING 154
SWIDTH 443 0
DWIDTH 6 0
BBX 6 6 0 0
BITMAP
70
D0
D8
D4
D4
D8
ENDCHAR
STARTCHAR guilsinglright
ENCODING 155
SWIDTH 443 0
DWIDTH 6 0
BBX 6 5 0 0
BITMAP
60
30
18
30
60
ENDCHAR
STARTCHAR afii10107
ENCODING 156
SWIDTH 443 0
DWIDTH 6 0
BBX 6 6 0 0
BITMAP
D0
D0
F8
D4
D4
D8
ENDCHAR
STARTCHAR afii10109
ENCODING 157
SWIDTH 443 0
DWIDTH 6 0
BBX 6 9 0 0
BITMAP
30
60
00
CC
D8
F0
D8
CC
CC
ENDCHAR
STARTCHAR afii10108
ENCODING 158
SWIDTH 443 0
DWIDTH 6 0
BBX 6 9 0 0
BITMAP
60
F8
60
78
6C
6C
6C
6C
6C
ENDCHAR
STARTCHAR afii10193
ENCODING 159
SWIDTH 443 0
DWIDTH 6 0
BBX 6 8 0 -2
BITMAP
CC
CC
CC
CC
CC
FC
30
30
ENDCHAR
STARTCHAR space
ENCODING 160
SWIDTH 443 0
DWIDTH 6 0
BBX 0 0 0 0
BITMAP
ENDCHAR
STARTCHAR afii10196
ENCODING 161
SWIDTH 443 0
DWIDTH 6 0
BBX 6 6 0 0
BITMAP
CC
CC
CC
6C
6C
38
ENDCHAR
STARTCHAR afii10194
ENCODING 162
SWIDTH 443 0
DWIDTH 6 0
BBX 6 9 0 0
BITMAP
60
60
60
F0
60
78
6C
6C
78
ENDCHAR
STARTCHAR afii10071
ENCODING 163
SWIDTH 443 0
DWIDTH 6 0
BBX 6 9 0 0
BITMAP
CC
CC
00
78
CC
FC
C0
CC
78
ENDCHAR
STARTCHAR afii10101
ENCODING 164
SWIDTH 443 0
DWIDTH 6 0
BBX 6 6 0 0
BITMAP
78
C0
F0
C0
C0
78
ENDCHAR
STARTCHAR afii10102
ENCODING 165
SWIDTH 443 0
DWIDTH 6 0
BBX 6 6 0 0
BITMAP
78
CC
70
18
CC
78
ENDCHAR
STARTCHAR afii10103
ENCODING 166
SWIDTH 443 0
DWIDTH 6 0
BBX 6 9 0 0
BITMAP
30
30
00
70
30
30
30
30
78
ENDCHAR
STARTCHAR afii10104
ENCODING 167
SWIDTH 443 0
DWIDTH 6 0
BBX 6 9 0 0
BITMAP
CC
CC
00
70
30
30
30
30
78
ENDCHAR
STARTCHAR afii10105
ENCODING 168
SWIDTH 443 0
DWIDTH 6 0
BBX 6 11 0 -2
BITMAP
18
18
00
38
18
18
18
18
D8
D8
70
ENDCHAR
STARTCHAR registered
ENCODING 169
SWIDTH 443 0
DWIDTH 6 0
BBX 6 9 0 0
BITMAP
78
CC
BC
AC
BC
B4
AC
CC
78
ENDCHAR
STARTCHAR trademark
ENCODING 170
SWIDTH 443 0
DWIDTH 6 0
BBX 6 4 0 5
BITMAP
F4
5C
54
54
ENDCHAR
STARTCHAR guillemotleft
ENCODING 171
SWIDTH 443 0
DWIDTH 6 0
BBX 6 7 0 1
BITMAP
34
68
D0
A0
D0
68
34
ENDCHAR
STARTCHAR afii10195
ENCODING 172
SWIDTH 443 0
DWIDTH 6 0
BBX 6 6 0 0
BITMAP
70
D8
F8
D8
D8
70
ENDCHAR
STARTCHAR afii10098
ENCODING 173
SWIDTH 443 0
DWIDTH 6 0
BBX 6 7 0 0
BITMAP
0C
FC
C0
C0
C0
C0
C0
ENDCHAR
STARTCHAR afii10110
ENCODING 174
SWIDTH 443 0
DWIDTH 6 0
BBX 6 10 0 -2
BITMAP
78
30
CC
CC
CC
DC
6C
0C
CC
78
ENDCHAR
STARTCHAR acute
ENCODING 175
SWIDTH 443 0
DWIDTH 6 0
BBX 6 2 0 8
BITMAP
30
60
ENDCHAR
STARTCHAR degree
ENCODING 176
SWIDTH 443 0
DWIDTH 6 0
BBX 6 4 0 5
BITMAP
78
CC
CC
78
ENDCHAR
STARTCHAR afii10148
ENCODING 177
SWIDTH 443 0
DWIDTH 6 0
BBX 6 9 0 0
BITMAP
CC
CC
CC
CC
6C
6C
6C
38
38
ENDCHAR
STARTCHAR afii10146
ENCODING 178
SWIDTH 443 0
DWIDTH 6 0
BBX 6 9 0 0
BITMAP
60
F8
60
60
78
6C
6C
6C
78
ENDCHAR
STARTCHAR afii10023
ENCODING 179
SWIDTH 443 0
DWIDTH 6 0
BBX 6 10 0 0
BITMAP
CC
CC
00
FC
C0
C0
F8
C0
C0
FC
ENDCHAR
STARTCHAR afii10053
ENCODING 180
SWIDTH 443 0
DWIDTH 6 0
BBX 6 9 0 0
BITMAP
3C
60
C0
C0
F8
C0
C0
60
3C
ENDCHAR
STARTCHAR afii10054
ENCODING 181
SWIDTH 443 0
DWIDTH 6 0
BBX 6 9 0 0
BITMAP
78
CC
C0
C0
78
0C
0C
CC
78
ENDCHAR
STARTCHAR afii10055
ENCODING 182
SWIDTH 443 0
DWIDTH 6 0
BBX 6 9 0 0
BITMAP
78
30
30
30
30
30
30
30
78
ENDCHAR
STARTCHAR afii10056
ENCODING 183
SWIDTH 443 0
DWIDTH 6 0
BBX 6 10 0 0
BITMAP
CC
CC
00
FC
30
30
30
30
30
FC
ENDCHAR
STARTCHAR afii10057
ENCODING 184
SWIDTH 443 0
DWIDTH 6 0
BBX 6 9 0 0
BITMAP
3C
0C
0C
0C
0C
0C
0C
CC
78
ENDCHAR
STARTCHAR afii61352
ENCODING 185
SWIDTH 443 0
DWIDTH 6 0
BBX 6 9 0 0
BITMAP
9C
94
D4
DC
D8
B8
B8
98
98
ENDCHAR
STARTCHAR cent
ENCODING 186
SWIDTH 443 0
DWIDTH 6 0
BBX 6 8 0 -1
BITMAP
10
78
DC
D0
D0
DC
78
10
ENDCHAR
STARTCHAR guillemotright
ENCODING 187
SWIDTH 443 0
DWIDTH 6 0
BBX 6 7 0 1
BITMAP
B0
58
2C
14
2C
58
B0
ENDCHAR
STARTCHAR afii10147
ENCODING 188
SWIDTH 443 0
DWIDTH 6 0
BBX 6 9 0 0
BITMAP
78
CC
CC
CC
FC
CC
CC
CC
78
ENDCHAR
STARTCHAR afii10050
ENCODING 189
SWIDTH 443 0
DWIDTH 6 0
BBX 6 10 0 0
BITMAP
0C
FC
C0
C0
C0
C0
C0
C0
C0
C0
ENDCHAR
STARTCHAR afii10062
ENCODING 190
SWIDTH 443 0
DWIDTH 6 0
BBX 6 10 0 0
BITMAP
78
30
CC
CC
CC
CC
7C
0C
CC
78
ENDCHAR
STARTCHAR copyright
ENCODING 191
SWIDTH 443 0
DWIDTH 6 0
BBX 6 9 0 0
BITMAP
78
CC
B4
EC
E4
EC
B4
CC
78
ENDCHAR
STARTCHAR afii10096
ENCODING 192
SWIDTH 443 0
DWIDTH 6 0
BBX 6 6 0 0
BITMAP
98
BC
EC
EC
BC
98
ENDCHAR
STARTCHAR afii10065
ENCODING 193
SWIDTH 443 0
DWIDTH 6 0
BBX 6 6 0 0
BITMAP
78
0C
7C
CC
DC
7C
ENDCHAR
STARTCHAR afii10066
ENCODING 194
SWIDTH 443 0
DWIDTH 6 0
BBX 6 8 0 0
BITMAP
04
78
C0
F8
CC
CC
CC
78
ENDCHAR
STARTCHAR afii10088
ENCODING 195
SWIDTH 443 0
DWIDTH 6 0
BBX 6 8 0 -2
BITMAP
D8
D8
D8
D8
D8
FC
0C
0C
ENDCHAR
STARTCHAR afii10069
ENCODING 196
SWIDTH 443 0
DWIDTH 6 0
BBX 6 7 0 -1
BITMAP
3C
6C
6C
6C
6C
FC
84
ENDCHAR
STARTCHAR afii10070
ENCODING 197
SWIDTH 443 0
DWIDTH 6 0
BBX 6 6 0 0
BITMAP
78
CC
FC
C0
CC
78
ENDCHAR
STARTCHAR afii10086
ENCODING 198
SWIDTH 443 0
DWIDTH 6 0
BBX 6 11 0 -2
BITMAP
30
30
30
78
B4
B4
B4
78
30
30
30
ENDCHAR
STARTCHAR afii10068
ENCODING 199
SWIDTH 443 0
DWIDTH 6 0
BBX 6 6 0 0
BITMAP
FC
C0
C0
C0
C0
C0
ENDCHAR
STARTCHAR afii10087
ENCODING 200
SWIDTH 443 0
DWIDTH 6 0
BBX 6 6 0 0
BITMAP
CC
78
30
78
CC
CC
ENDCHAR
STARTCHAR afii10074
ENCODING 201
SWIDTH 443 0
DWIDTH 6 0
BBX 6 6 0 0
BITMAP
CC
CC
DC
EC
CC
CC
ENDCHAR
STARTCHAR afii10075
ENCODING 202
SWIDTH 443 0
DWIDTH 6 0
BBX 6 8 0 0
BITMAP
78
30
CC
CC
DC
EC
CC
CC
ENDCHAR
STARTCHAR afii10076
ENCODING 203
SWIDTH 443 0
DWIDTH 6 0
BBX 6 6 0 0
BITMAP
CC
D8
F0
D8
CC
CC
ENDCHAR
STARTCHAR afii10077
ENCODING 204
SWIDTH 443 0
DWIDTH 6 0
BBX 6 6 0 0
BITMAP
3C
6C
6C
6C
6C
CC
ENDCHAR
STARTCHAR afii10078
ENCODING 205
SWIDTH 443 0
DWIDTH 6 0
BBX 6 6 0 0
BITMAP
CC
FC
FC
FC
CC
CC
ENDCHAR
STARTCHAR afii10079
ENCODING 206
SWIDTH 443 0
DWIDTH 6 0
BBX 6 6 0 0
BITMAP
CC
CC
FC
CC
CC
CC
ENDCHAR
STARTCHAR afii10080
ENCODING 207
SWIDTH 443 0
DWIDTH 6 0
BBX 6 6 0 0
BITMAP
78
CC
CC
CC
CC
78
ENDCHAR
STARTCHAR afii10081
ENCODING 208
SWIDTH 443 0
DWIDTH 6 0
BBX 6 6 0 0
BITMAP
FC
CC
CC
CC
CC
CC
ENDCHAR
STARTCHAR afii10097
ENCODING 209
SWIDTH 443 0
DWIDTH 6 0
BBX 6 6 0 0
BITMAP
7C
CC
CC
7C
6C
CC
ENDCHAR
STARTCHAR afii10082
ENCODING 210
SWIDTH 443 0
DWIDTH 6 0
BBX 6 8 0 -2
BITMAP
F8
CC
CC
CC
F8
C0
C0
C0
ENDCHAR
STARTCHAR afii10083
ENCODING 211
SWIDTH 443 0
DWIDTH 6 0
BBX 6 6 0 0
BITMAP
78
CC
C0
C0
CC
78
ENDCHAR
STARTCHAR afii10084
ENCODING 212
SWIDTH 443 0
DWIDTH 6 0
BBX 6 6 0 0
BITMAP
FC
B4
30
30
30
30
ENDCHAR
STARTCHAR afii10085
ENCODING 213
SWIDTH 443 0
DWIDTH 6 0
BBX 6 8 0 -2
BITMAP
CC
CC
CC
DC
6C
0C
CC
78
ENDCHAR
STARTCHAR afii10072
ENCODING 214
SWIDTH 443 0
DWIDTH 6 0
BBX 6 6 0 0
BITMAP
B4
B4
78
78
B4
B4
ENDCHAR
STARTCHAR afii10067
ENCODING 215
SWIDTH 443 0
DWIDTH 6 0
BBX 6 6 0 0
BITMAP
F8
CC
F8
CC
CC
F8
ENDCHAR
STARTCHAR afii10094
ENCODING 216
SWIDTH 443 0
DWIDTH 6 0
BBX 6 6 0 0
BITMAP
C0
C0
F8
CC
CC
F8
ENDCHAR
STARTCHAR afii10093
ENCODING 217
SWIDTH 443 0
DWIDTH 6 0
BBX 6 6 0 0
BITMAP
8C
8C
EC
BC
BC
EC
ENDCHAR
STARTCHAR afii10073
ENCODING 218
SWIDTH 443 0
DWIDTH 6 0
BBX 6 6 0 0
BITMAP
78
CC
18
0C
CC
78
ENDCHAR
STARTCHAR afii10090
ENCODING 219
SWIDTH 443 0
DWIDTH 6 0
BBX 6 6 0 0
BITMAP
AC
AC
AC
AC
AC
FC
ENDCHAR
STARTCHAR afii10095
ENCODING 220
SWIDTH 443 0
DWIDTH 6 0
BBX 6 6 0 0
BITMAP
F0
18
78
18
18
F0
ENDCHAR
STARTCHAR afii10091
ENCODING 221
SWIDTH 443 0
DWIDTH 6 0
BBX 6 8 0 -2
BITMAP
AC
AC
AC
AC
AC
FC
0C
0C
ENDCHAR
STARTCHAR afii10089
ENCODING 222
SWIDTH 443 0
DWIDTH 6 0
BBX 6 6 0 0
BITMAP
CC
CC
CC
7C
0C
0C
ENDCHAR
STARTCHAR afii10092
ENCODING 223
SWIDTH 443 0
DWIDTH 6 0
BBX 6 6 0 0
BITMAP
E0
60
78
6C
6C
78
ENDCHAR
STARTCHAR afii10048
ENCODING 224
SWIDTH 443 0
DWIDTH 6 0
BBX 6 9 0 0
BITMAP
98
BC
AC
EC
EC
EC
AC
BC
98
ENDCHAR
STARTCHAR afii10017
ENCODING 225
SWIDTH 443 0
DWIDTH 6 0
BBX 6 9 0 0
BITMAP
30
78
CC
CC
CC
FC
CC
CC
CC
ENDCHAR
STARTCHAR afii10018
ENCODING 226
SWIDTH 443 0
DWIDTH 6 0
BBX 6 9 0 0
BITMAP
F8
C0
C0
C0
F8
CC
CC
CC
F8
ENDCHAR
STARTCHAR afii10040
ENCODING 227
SWIDTH 443 0
DWIDTH 6 0
BBX 6 11 0 -2
BITMAP
D8
D8
D8
D8
D8
D8
D8
D8
FC
0C
0C
ENDCHAR
STARTCHAR afii10021
ENCODING 228
SWIDTH 443 0
DWIDTH 6 0
BBX 6 10 0 -1
BITMAP
3C
6C
6C
6C
6C
6C
6C
6C
FC
84
ENDCHAR
STARTCHAR afii10022
ENCODING 229
SWIDTH 443 0
DWIDTH 6 0
BBX 6 9 0 0
BITMAP
FC
C0
C0
C0
F8
C0
C0
C0
FC
ENDCHAR
STARTCHAR afii10038
ENCODING 230
SWIDTH 443 0
DWIDTH 6 0
BBX 6 9 0 0
BITMAP
78
30
78
B4
B4
B4
78
30
78
ENDCHAR
STARTCHAR afii10020
ENCODING 231
SWIDTH 443 0
DWIDTH 6 0
BBX 6 9 0 0
BITMAP
FC
C0
C0
C0
C0
C0
C0
C0
C0
ENDCHAR
STARTCHAR afii10039
ENCODING 232
SWIDTH 443 0
DWIDTH 6 0
BBX 6 9 0 0
BITMAP
CC
CC
78
78
30
78
78
CC
CC
ENDCHAR
STARTCHAR afii10026
ENCODING 233
SWIDTH 443 0
DWIDTH 6 0
BBX 6 9 0 0
BITMAP
CC
DC
DC
FC
FC
EC
EC
CC
CC
ENDCHAR
STARTCHAR afii10027
ENCODING 234
SWIDTH 443 0
DWIDTH 6 0
BBX 6 10 0 0
BITMAP
78
30
CC
CC
CC
DC
FC
EC
CC
CC
ENDCHAR
STARTCHAR afii10028
ENCODING 235
SWIDTH 443 0
DWIDTH 6 0
BBX 6 9 0 0
BITMAP
CC
CC
D8
F0
E0
F0
D8
CC
CC
ENDCHAR
STARTCHAR afii10029
ENCODING 236
SWIDTH 443 0
DWIDTH 6 0
BBX 6 9 0 0
BITMAP
3C
6C
6C
6C
6C
6C
6C
CC
CC
ENDCHAR
STARTCHAR afii10030
ENCODING 237
SWIDTH 443 0
DWIDTH 6 0
BBX 6 9 0 0
BITMAP
CC
CC
FC
FC
FC
CC
CC
CC
CC
ENDCHAR
STARTCHAR afii10031
ENCODING 238
SWIDTH 443 0
DWIDTH 6 0
BBX 6 9 0 0
BITMAP
CC
CC
CC
CC
FC
CC
CC
CC
CC
ENDCHAR
STARTCHAR afii10032
ENCODING 239
SWIDTH 443 0
DWIDTH 6 0
BBX 6 9 0 0
BITMAP
78
CC
CC
CC
CC
CC
CC
CC
78
ENDCHAR
STARTCHAR afii10033
ENCODING 240
SWIDTH 443 0
DWIDTH 6 0
BBX 6 9 0 0
BITMAP
FC
CC
CC
CC
CC
CC
CC
CC
CC
ENDCHAR
STARTCHAR afii10049
ENCODING 241
SWIDTH 443 0
DWIDTH 6 0
BBX 6 9 0 0
BITMAP
7C
CC
CC
CC
7C
3C
6C
CC
CC
ENDCHAR
STARTCHAR afii10034
ENCODING 242
SWIDTH 443 0
DWIDTH 6 0
BBX 6 9 0 0
BITMAP
F8
CC
CC
CC
CC
F8
C0
C0
C0
ENDCHAR
STARTCHAR afii10035
ENCODING 243
SWIDTH 443 0
DWIDTH 6 0
BBX 6 9 0 0
BITMAP
78
CC
C0
C0
C0
C0
C0
CC
78
ENDCHAR
STARTCHAR afii10036
ENCODING 244
SWIDTH 443 0
DWIDTH 6 0
BBX 6 9 0 0
BITMAP
FC
30
30
30
30
30
30
30
30
ENDCHAR
STARTCHAR afii10037
ENCODING 245
SWIDTH 443 0
DWIDTH 6 0
BBX 6 9 0 0
BITMAP
CC
CC
CC
CC
CC
7C
0C
0C
78
ENDCHAR
STARTCHAR afii10024
ENCODING 246
SWIDTH 443 0
DWIDTH 6 0
BBX 6 9 0 0
BITMAP
B4
B4
B4
FC
30
FC
B4
B4
B4
ENDCHAR
STARTCHAR afii10019
ENCODING 247
SWIDTH 443 0
DWIDTH 6 0
BBX 6 9 0 0
BITMAP
F8
CC
CC
CC
F8
CC
CC
CC
F8
ENDCHAR
STARTCHAR afii10046
ENCODING 248
SWIDTH 443 0
DWIDTH 6 0
BBX 6 9 0 0
BITMAP
C0
C0
C0
C0
F8
CC
CC
CC
F8
ENDCHAR
STARTCHAR afii10045
ENCODING 249
SWIDTH 443 0
DWIDTH 6 0
BBX 6 9 0 0
BITMAP
CC
CC
CC
EC
DC
DC
DC
DC
EC
ENDCHAR
STARTCHAR afii10025
ENCODING 250
SWIDTH 443 0
DWIDTH 6 0
BBX 6 9 0 0
BITMAP
78
CC
0C
0C
38
0C
0C
CC
78
ENDCHAR
STARTCHAR afii10042
ENCODING 251
SWIDTH 443 0
DWIDTH 6 0
BBX 6 9 0 0
BITMAP
AC
AC
AC
AC
AC
AC
AC
AC
FC
ENDCHAR
STARTCHAR afii10047
ENCODING 252
SWIDTH 443 0
DWIDTH 6 0
BBX 6 9 0 0
BITMAP
F0
18
0C
0C
7C
0C
0C
18
F0
ENDCHAR
STARTCHAR afii10043
ENCODING 253
SWIDTH 443 0
DWIDTH 6 0
BBX 6 11 0 -2
BITMAP
AC
AC
AC
AC
AC
AC
AC
AC
FC
0C
0C
ENDCHAR
STARTCHAR afii10041
ENCODING 254
SWIDTH 443 0
DWIDTH 6 0
BBX 6 9 0 0
BITMAP
CC
CC
CC
CC
7C
0C
0C
0C
0C
ENDCHAR
STARTCHAR afii10044
ENCODING 255
SWIDTH 443 0
DWIDTH 6 0
BBX 6 9 0 0
BITMAP
E0
E0
60
60
78
6C
6C
6C
78
ENDCHAR
ENDFONT
